<mxfile host="Electron" agent="Mozilla/5.0 (Macintosh; Intel Mac OS X 10_15_7) AppleWebKit/537.36 (KHTML, like Gecko) draw.io/24.7.17 Chrome/128.0.6613.36 Electron/32.0.1 Safari/537.36" version="24.7.17">
  <diagram name="Page-1" id="6VS4tHse4aSJ-w0RXjDX">
    <mxGraphModel dx="3283" dy="2168" grid="1" gridSize="10" guides="1" tooltips="1" connect="1" arrows="1" fold="1" page="1" pageScale="1" pageWidth="3300" pageHeight="4681" math="0" shadow="0">
      <root>
        <mxCell id="0" />
        <mxCell id="1" parent="0" />
        <mxCell id="3MWkX6Xy3s1bccYpcgpY-1" value="" style="endArrow=classic;startArrow=classic;html=1;rounded=0;strokeColor=#ff0000;" parent="1" edge="1">
          <mxGeometry width="50" height="50" relative="1" as="geometry">
            <mxPoint x="77" y="560" as="sourcePoint" />
            <mxPoint x="237" y="560" as="targetPoint" />
          </mxGeometry>
        </mxCell>
        <mxCell id="3MWkX6Xy3s1bccYpcgpY-3" value="" style="endArrow=classic;startArrow=classic;html=1;rounded=0;" parent="1" edge="1">
          <mxGeometry width="50" height="50" relative="1" as="geometry">
            <mxPoint x="237" y="560" as="sourcePoint" />
            <mxPoint x="397" y="560" as="targetPoint" />
          </mxGeometry>
        </mxCell>
        <mxCell id="3MWkX6Xy3s1bccYpcgpY-4" value="" style="endArrow=classic;startArrow=classic;html=1;rounded=0;" parent="1" edge="1">
          <mxGeometry width="50" height="50" relative="1" as="geometry">
            <mxPoint x="397" y="560" as="sourcePoint" />
            <mxPoint x="557" y="560" as="targetPoint" />
          </mxGeometry>
        </mxCell>
        <mxCell id="3MWkX6Xy3s1bccYpcgpY-5" value="" style="endArrow=classic;startArrow=classic;html=1;rounded=0;" parent="1" edge="1">
          <mxGeometry width="50" height="50" relative="1" as="geometry">
            <mxPoint x="557" y="560" as="sourcePoint" />
            <mxPoint x="1157.9193157327586" y="560" as="targetPoint" />
          </mxGeometry>
        </mxCell>
        <mxCell id="3MWkX6Xy3s1bccYpcgpY-6" value="" style="endArrow=classic;startArrow=classic;html=1;rounded=0;" parent="1" edge="1">
          <mxGeometry width="50" height="50" relative="1" as="geometry">
            <mxPoint x="557" y="560" as="sourcePoint" />
            <mxPoint x="597" y="520" as="targetPoint" />
          </mxGeometry>
        </mxCell>
        <mxCell id="3MWkX6Xy3s1bccYpcgpY-7" value="" style="endArrow=classic;startArrow=classic;html=1;rounded=0;" parent="1" edge="1">
          <mxGeometry width="50" height="50" relative="1" as="geometry">
            <mxPoint x="597" y="520" as="sourcePoint" />
            <mxPoint x="637" y="520" as="targetPoint" />
          </mxGeometry>
        </mxCell>
        <mxCell id="3MWkX6Xy3s1bccYpcgpY-8" value="" style="endArrow=classic;startArrow=classic;html=1;rounded=0;" parent="1" edge="1">
          <mxGeometry width="50" height="50" relative="1" as="geometry">
            <mxPoint x="637" y="520" as="sourcePoint" />
            <mxPoint x="1197" y="520" as="targetPoint" />
          </mxGeometry>
        </mxCell>
        <mxCell id="3MWkX6Xy3s1bccYpcgpY-9" value="" style="endArrow=classic;startArrow=classic;html=1;rounded=0;" parent="1" edge="1">
          <mxGeometry width="50" height="50" relative="1" as="geometry">
            <mxPoint x="1197" y="520" as="sourcePoint" />
            <mxPoint x="1237" y="480" as="targetPoint" />
          </mxGeometry>
        </mxCell>
        <mxCell id="3MWkX6Xy3s1bccYpcgpY-10" value="" style="endArrow=classic;startArrow=classic;html=1;rounded=0;" parent="1" edge="1">
          <mxGeometry width="50" height="50" relative="1" as="geometry">
            <mxPoint x="1157" y="560" as="sourcePoint" />
            <mxPoint x="1197" y="520" as="targetPoint" />
          </mxGeometry>
        </mxCell>
        <mxCell id="3MWkX6Xy3s1bccYpcgpY-11" value="" style="endArrow=classic;startArrow=classic;html=1;rounded=0;" parent="1" edge="1">
          <mxGeometry width="50" height="50" relative="1" as="geometry">
            <mxPoint x="597" y="520" as="sourcePoint" />
            <mxPoint x="637" y="480" as="targetPoint" />
          </mxGeometry>
        </mxCell>
        <mxCell id="3MWkX6Xy3s1bccYpcgpY-12" value="" style="endArrow=classic;startArrow=classic;html=1;rounded=0;" parent="1" edge="1">
          <mxGeometry width="50" height="50" relative="1" as="geometry">
            <mxPoint x="637" y="480" as="sourcePoint" />
            <mxPoint x="1237" y="480" as="targetPoint" />
          </mxGeometry>
        </mxCell>
        <mxCell id="3MWkX6Xy3s1bccYpcgpY-13" value="" style="endArrow=classic;startArrow=classic;html=1;rounded=0;" parent="1" edge="1">
          <mxGeometry width="50" height="50" relative="1" as="geometry">
            <mxPoint x="1237" y="480" as="sourcePoint" />
            <mxPoint x="1357" y="480" as="targetPoint" />
          </mxGeometry>
        </mxCell>
        <mxCell id="3MWkX6Xy3s1bccYpcgpY-14" value="" style="endArrow=classic;startArrow=classic;html=1;rounded=0;" parent="1" edge="1">
          <mxGeometry width="50" height="50" relative="1" as="geometry">
            <mxPoint x="1357" y="480" as="sourcePoint" />
            <mxPoint x="1397" y="440" as="targetPoint" />
          </mxGeometry>
        </mxCell>
        <mxCell id="3MWkX6Xy3s1bccYpcgpY-15" value="" style="endArrow=classic;startArrow=classic;html=1;rounded=0;" parent="1" edge="1">
          <mxGeometry width="50" height="50" relative="1" as="geometry">
            <mxPoint x="1397" y="440" as="sourcePoint" />
            <mxPoint x="1558.3793103448277" y="440" as="targetPoint" />
          </mxGeometry>
        </mxCell>
        <mxCell id="3MWkX6Xy3s1bccYpcgpY-16" value="" style="endArrow=classic;startArrow=classic;html=1;rounded=0;" parent="1" edge="1">
          <mxGeometry width="50" height="50" relative="1" as="geometry">
            <mxPoint x="1557" y="440" as="sourcePoint" />
            <mxPoint x="1717" y="440" as="targetPoint" />
          </mxGeometry>
        </mxCell>
        <mxCell id="3MWkX6Xy3s1bccYpcgpY-17" value="" style="endArrow=classic;startArrow=classic;html=1;rounded=0;" parent="1" edge="1">
          <mxGeometry width="50" height="50" relative="1" as="geometry">
            <mxPoint x="1717" y="440" as="sourcePoint" />
            <mxPoint x="1797" y="440" as="targetPoint" />
          </mxGeometry>
        </mxCell>
        <mxCell id="3MWkX6Xy3s1bccYpcgpY-18" value="" style="endArrow=classic;startArrow=classic;html=1;rounded=0;" parent="1" edge="1">
          <mxGeometry width="50" height="50" relative="1" as="geometry">
            <mxPoint x="1757" y="400" as="sourcePoint" />
            <mxPoint x="1797" y="440" as="targetPoint" />
          </mxGeometry>
        </mxCell>
        <mxCell id="3MWkX6Xy3s1bccYpcgpY-19" value="" style="endArrow=classic;startArrow=classic;html=1;rounded=0;" parent="1" edge="1">
          <mxGeometry width="50" height="50" relative="1" as="geometry">
            <mxPoint x="1517" y="400" as="sourcePoint" />
            <mxPoint x="1757" y="400" as="targetPoint" />
          </mxGeometry>
        </mxCell>
        <mxCell id="3MWkX6Xy3s1bccYpcgpY-20" value="" style="endArrow=classic;startArrow=classic;html=1;rounded=0;" parent="1" edge="1">
          <mxGeometry width="50" height="50" relative="1" as="geometry">
            <mxPoint x="1437" y="400" as="sourcePoint" />
            <mxPoint x="1517" y="400" as="targetPoint" />
          </mxGeometry>
        </mxCell>
        <mxCell id="3MWkX6Xy3s1bccYpcgpY-21" value="" style="endArrow=classic;startArrow=classic;html=1;rounded=0;" parent="1" edge="1">
          <mxGeometry width="50" height="50" relative="1" as="geometry">
            <mxPoint x="1357" y="400" as="sourcePoint" />
            <mxPoint x="1437" y="400" as="targetPoint" />
          </mxGeometry>
        </mxCell>
        <mxCell id="3MWkX6Xy3s1bccYpcgpY-22" value="" style="endArrow=classic;startArrow=classic;html=1;rounded=0;" parent="1" edge="1">
          <mxGeometry width="50" height="50" relative="1" as="geometry">
            <mxPoint x="1277" y="320" as="sourcePoint" />
            <mxPoint x="1357" y="400" as="targetPoint" />
          </mxGeometry>
        </mxCell>
        <mxCell id="3MWkX6Xy3s1bccYpcgpY-23" value="" style="endArrow=classic;startArrow=classic;html=1;rounded=0;" parent="1" edge="1">
          <mxGeometry width="50" height="50" relative="1" as="geometry">
            <mxPoint x="1157" y="320" as="sourcePoint" />
            <mxPoint x="1277" y="320" as="targetPoint" />
          </mxGeometry>
        </mxCell>
        <mxCell id="3MWkX6Xy3s1bccYpcgpY-24" value="" style="endArrow=classic;startArrow=classic;html=1;rounded=0;" parent="1" edge="1">
          <mxGeometry width="50" height="50" relative="1" as="geometry">
            <mxPoint x="1117" y="360" as="sourcePoint" />
            <mxPoint x="1157" y="320" as="targetPoint" />
          </mxGeometry>
        </mxCell>
        <mxCell id="3MWkX6Xy3s1bccYpcgpY-25" value="" style="endArrow=classic;startArrow=classic;html=1;rounded=0;" parent="1" edge="1">
          <mxGeometry width="50" height="50" relative="1" as="geometry">
            <mxPoint x="554.2413793103449" y="360" as="sourcePoint" />
            <mxPoint x="1117" y="360" as="targetPoint" />
          </mxGeometry>
        </mxCell>
        <mxCell id="3MWkX6Xy3s1bccYpcgpY-26" value="" style="endArrow=classic;startArrow=classic;html=1;rounded=0;" parent="1" edge="1">
          <mxGeometry width="50" height="50" relative="1" as="geometry">
            <mxPoint x="397" y="520" as="sourcePoint" />
            <mxPoint x="477" y="520" as="targetPoint" />
          </mxGeometry>
        </mxCell>
        <mxCell id="3MWkX6Xy3s1bccYpcgpY-27" value="" style="endArrow=classic;startArrow=classic;html=1;rounded=0;" parent="1" edge="1">
          <mxGeometry width="50" height="50" relative="1" as="geometry">
            <mxPoint x="517" y="400" as="sourcePoint" />
            <mxPoint x="557" y="360" as="targetPoint" />
          </mxGeometry>
        </mxCell>
        <mxCell id="3MWkX6Xy3s1bccYpcgpY-28" value="" style="endArrow=classic;startArrow=classic;html=1;rounded=0;" parent="1" edge="1">
          <mxGeometry width="50" height="50" relative="1" as="geometry">
            <mxPoint x="517" y="320" as="sourcePoint" />
            <mxPoint x="1157" y="320" as="targetPoint" />
          </mxGeometry>
        </mxCell>
        <mxCell id="3MWkX6Xy3s1bccYpcgpY-29" value="" style="endArrow=classic;startArrow=classic;html=1;rounded=0;" parent="1" edge="1">
          <mxGeometry width="50" height="50" relative="1" as="geometry">
            <mxPoint x="477" y="520" as="sourcePoint" />
            <mxPoint x="517" y="480" as="targetPoint" />
          </mxGeometry>
        </mxCell>
        <mxCell id="3MWkX6Xy3s1bccYpcgpY-30" value="" style="endArrow=classic;startArrow=classic;html=1;rounded=0;" parent="1" edge="1">
          <mxGeometry width="50" height="50" relative="1" as="geometry">
            <mxPoint x="517" y="480" as="sourcePoint" />
            <mxPoint x="517" y="400" as="targetPoint" />
          </mxGeometry>
        </mxCell>
        <mxCell id="3MWkX6Xy3s1bccYpcgpY-31" value="" style="endArrow=classic;startArrow=classic;html=1;rounded=0;" parent="1" edge="1">
          <mxGeometry width="50" height="50" relative="1" as="geometry">
            <mxPoint x="397" y="520" as="sourcePoint" />
            <mxPoint x="437" y="480" as="targetPoint" />
          </mxGeometry>
        </mxCell>
        <mxCell id="3MWkX6Xy3s1bccYpcgpY-32" value="" style="endArrow=classic;startArrow=classic;html=1;rounded=0;" parent="1" edge="1">
          <mxGeometry width="50" height="50" relative="1" as="geometry">
            <mxPoint x="437" y="480" as="sourcePoint" />
            <mxPoint x="437" y="400" as="targetPoint" />
          </mxGeometry>
        </mxCell>
        <mxCell id="3MWkX6Xy3s1bccYpcgpY-33" value="" style="endArrow=classic;startArrow=classic;html=1;rounded=0;" parent="1" edge="1">
          <mxGeometry width="50" height="50" relative="1" as="geometry">
            <mxPoint x="437" y="400" as="sourcePoint" />
            <mxPoint x="517" y="320" as="targetPoint" />
          </mxGeometry>
        </mxCell>
        <mxCell id="3MWkX6Xy3s1bccYpcgpY-34" value="" style="endArrow=classic;startArrow=classic;html=1;rounded=0;" parent="1" edge="1">
          <mxGeometry width="50" height="50" relative="1" as="geometry">
            <mxPoint x="317" y="520" as="sourcePoint" />
            <mxPoint x="397" y="520" as="targetPoint" />
          </mxGeometry>
        </mxCell>
        <mxCell id="3MWkX6Xy3s1bccYpcgpY-35" value="" style="endArrow=classic;startArrow=classic;html=1;rounded=0;" parent="1" edge="1">
          <mxGeometry width="50" height="50" relative="1" as="geometry">
            <mxPoint x="1237" y="280" as="sourcePoint" />
            <mxPoint x="1277" y="320" as="targetPoint" />
          </mxGeometry>
        </mxCell>
        <mxCell id="3MWkX6Xy3s1bccYpcgpY-36" value="" style="endArrow=classic;startArrow=classic;html=1;rounded=0;" parent="1" edge="1">
          <mxGeometry width="50" height="50" relative="1" as="geometry">
            <mxPoint x="1237" y="280" as="sourcePoint" />
            <mxPoint x="1237" y="240" as="targetPoint" />
          </mxGeometry>
        </mxCell>
        <mxCell id="3MWkX6Xy3s1bccYpcgpY-37" value="" style="endArrow=classic;startArrow=classic;html=1;rounded=0;" parent="1" edge="1">
          <mxGeometry width="50" height="50" relative="1" as="geometry">
            <mxPoint x="1197" y="200" as="sourcePoint" />
            <mxPoint x="1237" y="240" as="targetPoint" />
          </mxGeometry>
        </mxCell>
        <mxCell id="3MWkX6Xy3s1bccYpcgpY-38" value="" style="endArrow=classic;startArrow=classic;html=1;rounded=0;" parent="1" edge="1">
          <mxGeometry width="50" height="50" relative="1" as="geometry">
            <mxPoint x="1157" y="200" as="sourcePoint" />
            <mxPoint x="1197" y="200" as="targetPoint" />
          </mxGeometry>
        </mxCell>
        <mxCell id="3MWkX6Xy3s1bccYpcgpY-39" value="" style="endArrow=classic;startArrow=classic;html=1;rounded=0;" parent="1" edge="1">
          <mxGeometry width="50" height="50" relative="1" as="geometry">
            <mxPoint x="1117" y="240" as="sourcePoint" />
            <mxPoint x="1157" y="200" as="targetPoint" />
          </mxGeometry>
        </mxCell>
        <mxCell id="3MWkX6Xy3s1bccYpcgpY-40" value="" style="endArrow=classic;startArrow=classic;html=1;rounded=0;" parent="1" edge="1">
          <mxGeometry width="50" height="50" relative="1" as="geometry">
            <mxPoint x="477" y="240" as="sourcePoint" />
            <mxPoint x="1117" y="240" as="targetPoint" />
          </mxGeometry>
        </mxCell>
        <mxCell id="3MWkX6Xy3s1bccYpcgpY-41" value="" style="endArrow=classic;startArrow=classic;html=1;rounded=0;" parent="1" edge="1">
          <mxGeometry width="50" height="50" relative="1" as="geometry">
            <mxPoint x="477" y="240" as="sourcePoint" />
            <mxPoint x="517" y="200" as="targetPoint" />
          </mxGeometry>
        </mxCell>
        <mxCell id="3MWkX6Xy3s1bccYpcgpY-42" value="" style="endArrow=classic;startArrow=classic;html=1;rounded=0;" parent="1" edge="1">
          <mxGeometry width="50" height="50" relative="1" as="geometry">
            <mxPoint x="517" y="200" as="sourcePoint" />
            <mxPoint x="1157" y="200" as="targetPoint" />
          </mxGeometry>
        </mxCell>
        <mxCell id="3MWkX6Xy3s1bccYpcgpY-43" value="" style="endArrow=classic;startArrow=classic;html=1;rounded=0;" parent="1" edge="1">
          <mxGeometry width="50" height="50" relative="1" as="geometry">
            <mxPoint x="397" y="240" as="sourcePoint" />
            <mxPoint x="477" y="240" as="targetPoint" />
          </mxGeometry>
        </mxCell>
        <mxCell id="3MWkX6Xy3s1bccYpcgpY-44" value="" style="endArrow=classic;startArrow=classic;html=1;rounded=0;" parent="1" edge="1">
          <mxGeometry width="50" height="50" relative="1" as="geometry">
            <mxPoint x="357" y="280" as="sourcePoint" />
            <mxPoint x="397" y="240" as="targetPoint" />
          </mxGeometry>
        </mxCell>
        <mxCell id="3MWkX6Xy3s1bccYpcgpY-45" value="" style="endArrow=classic;startArrow=classic;html=1;rounded=0;" parent="1" edge="1">
          <mxGeometry width="50" height="50" relative="1" as="geometry">
            <mxPoint x="357" y="480" as="sourcePoint" />
            <mxPoint x="357" y="280" as="targetPoint" />
          </mxGeometry>
        </mxCell>
        <mxCell id="3MWkX6Xy3s1bccYpcgpY-46" value="" style="endArrow=classic;startArrow=classic;html=1;rounded=0;" parent="1" edge="1">
          <mxGeometry width="50" height="50" relative="1" as="geometry">
            <mxPoint x="317" y="520" as="sourcePoint" />
            <mxPoint x="357" y="480" as="targetPoint" />
          </mxGeometry>
        </mxCell>
        <mxCell id="3MWkX6Xy3s1bccYpcgpY-47" value="" style="endArrow=classic;startArrow=classic;html=1;rounded=0;" parent="1" edge="1">
          <mxGeometry width="50" height="50" relative="1" as="geometry">
            <mxPoint x="277" y="520" as="sourcePoint" />
            <mxPoint x="317" y="520" as="targetPoint" />
          </mxGeometry>
        </mxCell>
        <mxCell id="3MWkX6Xy3s1bccYpcgpY-48" value="" style="endArrow=classic;startArrow=classic;html=1;rounded=0;" parent="1" edge="1">
          <mxGeometry width="50" height="50" relative="1" as="geometry">
            <mxPoint x="237" y="560" as="sourcePoint" />
            <mxPoint x="277" y="520" as="targetPoint" />
          </mxGeometry>
        </mxCell>
        <mxCell id="3MWkX6Xy3s1bccYpcgpY-49" value="" style="endArrow=classic;startArrow=classic;html=1;rounded=0;" parent="1" edge="1">
          <mxGeometry width="50" height="50" relative="1" as="geometry">
            <mxPoint x="1117" y="160" as="sourcePoint" />
            <mxPoint x="1157" y="120" as="targetPoint" />
          </mxGeometry>
        </mxCell>
        <mxCell id="3MWkX6Xy3s1bccYpcgpY-50" value="" style="endArrow=classic;startArrow=classic;html=1;rounded=0;" parent="1" edge="1">
          <mxGeometry width="50" height="50" relative="1" as="geometry">
            <mxPoint x="477" y="160" as="sourcePoint" />
            <mxPoint x="1117" y="160" as="targetPoint" />
          </mxGeometry>
        </mxCell>
        <mxCell id="3MWkX6Xy3s1bccYpcgpY-51" value="" style="endArrow=classic;startArrow=classic;html=1;rounded=0;" parent="1" edge="1">
          <mxGeometry width="50" height="50" relative="1" as="geometry">
            <mxPoint x="477" y="160" as="sourcePoint" />
            <mxPoint x="517" y="120" as="targetPoint" />
          </mxGeometry>
        </mxCell>
        <mxCell id="3MWkX6Xy3s1bccYpcgpY-52" value="" style="endArrow=classic;startArrow=classic;html=1;rounded=0;" parent="1" edge="1">
          <mxGeometry width="50" height="50" relative="1" as="geometry">
            <mxPoint x="517" y="120" as="sourcePoint" />
            <mxPoint x="1157" y="120" as="targetPoint" />
          </mxGeometry>
        </mxCell>
        <mxCell id="3MWkX6Xy3s1bccYpcgpY-53" value="" style="endArrow=classic;startArrow=classic;html=1;rounded=0;" parent="1" edge="1">
          <mxGeometry width="50" height="50" relative="1" as="geometry">
            <mxPoint x="1317" y="280" as="sourcePoint" />
            <mxPoint x="1437" y="400" as="targetPoint" />
          </mxGeometry>
        </mxCell>
        <mxCell id="3MWkX6Xy3s1bccYpcgpY-54" value="" style="endArrow=classic;startArrow=classic;html=1;rounded=0;" parent="1" edge="1">
          <mxGeometry width="50" height="50" relative="1" as="geometry">
            <mxPoint x="1317" y="160" as="sourcePoint" />
            <mxPoint x="1317" y="280" as="targetPoint" />
          </mxGeometry>
        </mxCell>
        <mxCell id="3MWkX6Xy3s1bccYpcgpY-55" value="" style="endArrow=classic;startArrow=classic;html=1;rounded=0;" parent="1" edge="1">
          <mxGeometry width="50" height="50" relative="1" as="geometry">
            <mxPoint x="1277" y="120" as="sourcePoint" />
            <mxPoint x="1317" y="160" as="targetPoint" />
          </mxGeometry>
        </mxCell>
        <mxCell id="3MWkX6Xy3s1bccYpcgpY-56" value="" style="endArrow=classic;startArrow=classic;html=1;rounded=0;" parent="1" edge="1">
          <mxGeometry width="50" height="50" relative="1" as="geometry">
            <mxPoint x="1157" y="120" as="sourcePoint" />
            <mxPoint x="1277" y="120" as="targetPoint" />
          </mxGeometry>
        </mxCell>
        <mxCell id="3MWkX6Xy3s1bccYpcgpY-57" value="" style="endArrow=classic;startArrow=classic;html=1;rounded=0;" parent="1" edge="1">
          <mxGeometry width="50" height="50" relative="1" as="geometry">
            <mxPoint x="357" y="160" as="sourcePoint" />
            <mxPoint x="477" y="160" as="targetPoint" />
          </mxGeometry>
        </mxCell>
        <mxCell id="3MWkX6Xy3s1bccYpcgpY-58" value="" style="endArrow=classic;startArrow=classic;html=1;rounded=0;" parent="1" edge="1">
          <mxGeometry width="50" height="50" relative="1" as="geometry">
            <mxPoint x="357" y="160" as="sourcePoint" />
            <mxPoint x="437" y="80" as="targetPoint" />
          </mxGeometry>
        </mxCell>
        <mxCell id="3MWkX6Xy3s1bccYpcgpY-59" value="" style="endArrow=classic;startArrow=classic;html=1;rounded=0;" parent="1" edge="1">
          <mxGeometry width="50" height="50" relative="1" as="geometry">
            <mxPoint x="437" y="80" as="sourcePoint" />
            <mxPoint x="1357" y="80" as="targetPoint" />
          </mxGeometry>
        </mxCell>
        <mxCell id="3MWkX6Xy3s1bccYpcgpY-60" value="" style="endArrow=classic;startArrow=classic;html=1;rounded=0;" parent="1" edge="1">
          <mxGeometry width="50" height="50" relative="1" as="geometry">
            <mxPoint x="1357" y="80" as="sourcePoint" />
            <mxPoint x="1397" y="120" as="targetPoint" />
          </mxGeometry>
        </mxCell>
        <mxCell id="3MWkX6Xy3s1bccYpcgpY-61" value="" style="endArrow=classic;startArrow=classic;html=1;rounded=0;" parent="1" edge="1">
          <mxGeometry width="50" height="50" relative="1" as="geometry">
            <mxPoint x="1397" y="120" as="sourcePoint" />
            <mxPoint x="1397" y="280" as="targetPoint" />
          </mxGeometry>
        </mxCell>
        <mxCell id="3MWkX6Xy3s1bccYpcgpY-62" value="" style="endArrow=classic;startArrow=classic;html=1;rounded=0;" parent="1" edge="1">
          <mxGeometry width="50" height="50" relative="1" as="geometry">
            <mxPoint x="1397" y="280" as="sourcePoint" />
            <mxPoint x="1517" y="400" as="targetPoint" />
          </mxGeometry>
        </mxCell>
        <mxCell id="3MWkX6Xy3s1bccYpcgpY-63" value="" style="endArrow=classic;startArrow=classic;html=1;rounded=0;" parent="1" edge="1">
          <mxGeometry width="50" height="50" relative="1" as="geometry">
            <mxPoint x="277" y="160" as="sourcePoint" />
            <mxPoint x="357" y="160" as="targetPoint" />
          </mxGeometry>
        </mxCell>
        <mxCell id="3MWkX6Xy3s1bccYpcgpY-64" value="" style="endArrow=classic;startArrow=classic;html=1;rounded=0;" parent="1" edge="1">
          <mxGeometry width="50" height="50" relative="1" as="geometry">
            <mxPoint x="237" y="200" as="sourcePoint" />
            <mxPoint x="277" y="160" as="targetPoint" />
          </mxGeometry>
        </mxCell>
        <mxCell id="3MWkX6Xy3s1bccYpcgpY-65" value="" style="endArrow=classic;startArrow=classic;html=1;rounded=0;" parent="1" edge="1">
          <mxGeometry width="50" height="50" relative="1" as="geometry">
            <mxPoint x="237" y="400" as="sourcePoint" />
            <mxPoint x="237" y="200" as="targetPoint" />
          </mxGeometry>
        </mxCell>
        <mxCell id="3MWkX6Xy3s1bccYpcgpY-66" value="" style="endArrow=classic;startArrow=classic;html=1;rounded=0;strokeColor=#00ff00;" parent="1" edge="1">
          <mxGeometry width="50" height="50" relative="1" as="geometry">
            <mxPoint x="77" y="520" as="sourcePoint" />
            <mxPoint x="117" y="520" as="targetPoint" />
          </mxGeometry>
        </mxCell>
        <mxCell id="3MWkX6Xy3s1bccYpcgpY-67" value="" style="endArrow=classic;startArrow=classic;html=1;rounded=0;" parent="1" edge="1">
          <mxGeometry width="50" height="50" relative="1" as="geometry">
            <mxPoint x="117" y="520" as="sourcePoint" />
            <mxPoint x="237" y="400" as="targetPoint" />
          </mxGeometry>
        </mxCell>
        <mxCell id="3MWkX6Xy3s1bccYpcgpY-68" value="" style="endArrow=classic;startArrow=classic;html=1;rounded=0;" parent="1" edge="1">
          <mxGeometry width="50" height="50" relative="1" as="geometry">
            <mxPoint x="477" y="640" as="sourcePoint" />
            <mxPoint x="397" y="560" as="targetPoint" />
          </mxGeometry>
        </mxCell>
        <mxCell id="3MWkX6Xy3s1bccYpcgpY-69" value="" style="endArrow=classic;startArrow=classic;html=1;rounded=0;" parent="1" edge="1">
          <mxGeometry width="50" height="50" relative="1" as="geometry">
            <mxPoint x="477" y="640" as="sourcePoint" />
            <mxPoint x="557" y="640" as="targetPoint" />
          </mxGeometry>
        </mxCell>
        <mxCell id="3MWkX6Xy3s1bccYpcgpY-70" value="" style="endArrow=classic;startArrow=classic;html=1;rounded=0;" parent="1" edge="1">
          <mxGeometry width="50" height="50" relative="1" as="geometry">
            <mxPoint x="557" y="640" as="sourcePoint" />
            <mxPoint x="597" y="600" as="targetPoint" />
          </mxGeometry>
        </mxCell>
        <mxCell id="3MWkX6Xy3s1bccYpcgpY-71" value="" style="endArrow=classic;startArrow=classic;html=1;rounded=0;" parent="1" edge="1">
          <mxGeometry width="50" height="50" relative="1" as="geometry">
            <mxPoint x="597" y="600" as="sourcePoint" />
            <mxPoint x="997" y="600" as="targetPoint" />
          </mxGeometry>
        </mxCell>
        <mxCell id="3MWkX6Xy3s1bccYpcgpY-72" value="" style="endArrow=classic;startArrow=classic;html=1;rounded=0;" parent="1" edge="1">
          <mxGeometry width="50" height="50" relative="1" as="geometry">
            <mxPoint x="1037" y="640" as="sourcePoint" />
            <mxPoint x="997" y="600" as="targetPoint" />
          </mxGeometry>
        </mxCell>
        <mxCell id="3MWkX6Xy3s1bccYpcgpY-73" value="" style="endArrow=classic;startArrow=classic;html=1;rounded=0;" parent="1" edge="1">
          <mxGeometry width="50" height="50" relative="1" as="geometry">
            <mxPoint x="557" y="641" as="sourcePoint" />
            <mxPoint x="1037" y="641" as="targetPoint" />
          </mxGeometry>
        </mxCell>
        <mxCell id="3MWkX6Xy3s1bccYpcgpY-74" value="" style="endArrow=classic;startArrow=classic;html=1;rounded=0;" parent="1" edge="1">
          <mxGeometry width="50" height="50" relative="1" as="geometry">
            <mxPoint x="1037" y="640" as="sourcePoint" />
            <mxPoint x="1077" y="640" as="targetPoint" />
          </mxGeometry>
        </mxCell>
        <mxCell id="3MWkX6Xy3s1bccYpcgpY-75" value="" style="endArrow=classic;startArrow=classic;html=1;rounded=0;" parent="1" edge="1">
          <mxGeometry width="50" height="50" relative="1" as="geometry">
            <mxPoint x="1077" y="640" as="sourcePoint" />
            <mxPoint x="1157" y="720" as="targetPoint" />
          </mxGeometry>
        </mxCell>
        <mxCell id="3MWkX6Xy3s1bccYpcgpY-76" value="" style="endArrow=classic;startArrow=classic;html=1;rounded=0;" parent="1" edge="1">
          <mxGeometry width="50" height="50" relative="1" as="geometry">
            <mxPoint x="1117" y="1080" as="sourcePoint" />
            <mxPoint x="1157" y="1080" as="targetPoint" />
          </mxGeometry>
        </mxCell>
        <mxCell id="3MWkX6Xy3s1bccYpcgpY-77" value="" style="endArrow=classic;startArrow=classic;html=1;rounded=0;" parent="1" edge="1">
          <mxGeometry width="50" height="50" relative="1" as="geometry">
            <mxPoint x="1197" y="720" as="sourcePoint" />
            <mxPoint x="1317" y="600" as="targetPoint" />
          </mxGeometry>
        </mxCell>
        <mxCell id="3MWkX6Xy3s1bccYpcgpY-78" value="" style="endArrow=classic;startArrow=classic;html=1;rounded=0;" parent="1" edge="1">
          <mxGeometry width="50" height="50" relative="1" as="geometry">
            <mxPoint x="1397" y="600" as="sourcePoint" />
            <mxPoint x="1557" y="440" as="targetPoint" />
          </mxGeometry>
        </mxCell>
        <mxCell id="3MWkX6Xy3s1bccYpcgpY-79" value="" style="endArrow=classic;startArrow=classic;html=1;rounded=0;" parent="1" edge="1">
          <mxGeometry width="50" height="50" relative="1" as="geometry">
            <mxPoint x="1317" y="600" as="sourcePoint" />
            <mxPoint x="1397" y="600" as="targetPoint" />
          </mxGeometry>
        </mxCell>
        <mxCell id="3MWkX6Xy3s1bccYpcgpY-80" value="" style="endArrow=classic;startArrow=classic;html=1;rounded=0;" parent="1" edge="1">
          <mxGeometry width="50" height="50" relative="1" as="geometry">
            <mxPoint x="557" y="720" as="sourcePoint" />
            <mxPoint x="597" y="680" as="targetPoint" />
          </mxGeometry>
        </mxCell>
        <mxCell id="3MWkX6Xy3s1bccYpcgpY-81" value="" style="endArrow=classic;startArrow=classic;html=1;rounded=0;" parent="1" edge="1">
          <mxGeometry width="50" height="50" relative="1" as="geometry">
            <mxPoint x="597" y="680" as="sourcePoint" />
            <mxPoint x="997" y="680" as="targetPoint" />
          </mxGeometry>
        </mxCell>
        <mxCell id="3MWkX6Xy3s1bccYpcgpY-82" value="" style="endArrow=classic;startArrow=classic;html=1;rounded=0;" parent="1" edge="1">
          <mxGeometry width="50" height="50" relative="1" as="geometry">
            <mxPoint x="1037" y="720" as="sourcePoint" />
            <mxPoint x="997" y="680" as="targetPoint" />
          </mxGeometry>
        </mxCell>
        <mxCell id="3MWkX6Xy3s1bccYpcgpY-83" value="" style="endArrow=classic;startArrow=classic;html=1;rounded=0;" parent="1" edge="1">
          <mxGeometry width="50" height="50" relative="1" as="geometry">
            <mxPoint x="557" y="721" as="sourcePoint" />
            <mxPoint x="1037" y="721" as="targetPoint" />
          </mxGeometry>
        </mxCell>
        <mxCell id="3MWkX6Xy3s1bccYpcgpY-84" value="" style="endArrow=classic;startArrow=classic;html=1;rounded=0;" parent="1" edge="1">
          <mxGeometry width="50" height="50" relative="1" as="geometry">
            <mxPoint x="1037" y="720" as="sourcePoint" />
            <mxPoint x="1157" y="720" as="targetPoint" />
          </mxGeometry>
        </mxCell>
        <mxCell id="3MWkX6Xy3s1bccYpcgpY-85" value="" style="endArrow=classic;startArrow=classic;html=1;rounded=0;" parent="1" edge="1">
          <mxGeometry width="50" height="50" relative="1" as="geometry">
            <mxPoint x="437" y="720" as="sourcePoint" />
            <mxPoint x="557" y="720" as="targetPoint" />
          </mxGeometry>
        </mxCell>
        <mxCell id="3MWkX6Xy3s1bccYpcgpY-86" value="" style="endArrow=classic;startArrow=classic;html=1;rounded=0;" parent="1" edge="1">
          <mxGeometry width="50" height="50" relative="1" as="geometry">
            <mxPoint x="437" y="720" as="sourcePoint" />
            <mxPoint x="477" y="760" as="targetPoint" />
          </mxGeometry>
        </mxCell>
        <mxCell id="3MWkX6Xy3s1bccYpcgpY-87" value="" style="endArrow=classic;startArrow=classic;html=1;rounded=0;" parent="1" edge="1">
          <mxGeometry width="50" height="50" relative="1" as="geometry">
            <mxPoint x="477" y="760" as="sourcePoint" />
            <mxPoint x="1037" y="760" as="targetPoint" />
          </mxGeometry>
        </mxCell>
        <mxCell id="3MWkX6Xy3s1bccYpcgpY-88" value="" style="endArrow=classic;startArrow=classic;html=1;rounded=0;" parent="1" edge="1">
          <mxGeometry width="50" height="50" relative="1" as="geometry">
            <mxPoint x="1037" y="760" as="sourcePoint" />
            <mxPoint x="1157" y="760" as="targetPoint" />
          </mxGeometry>
        </mxCell>
        <mxCell id="3MWkX6Xy3s1bccYpcgpY-89" value="" style="endArrow=classic;startArrow=classic;html=1;rounded=0;" parent="1" edge="1">
          <mxGeometry width="50" height="50" relative="1" as="geometry">
            <mxPoint x="1157" y="760" as="sourcePoint" />
            <mxPoint x="1197" y="720" as="targetPoint" />
          </mxGeometry>
        </mxCell>
        <mxCell id="3MWkX6Xy3s1bccYpcgpY-90" value="" style="endArrow=classic;startArrow=classic;html=1;rounded=0;" parent="1" edge="1">
          <mxGeometry width="50" height="50" relative="1" as="geometry">
            <mxPoint x="997" y="800" as="sourcePoint" />
            <mxPoint x="1037" y="760" as="targetPoint" />
          </mxGeometry>
        </mxCell>
        <mxCell id="3MWkX6Xy3s1bccYpcgpY-93" value="" style="endArrow=classic;startArrow=classic;html=1;rounded=0;" parent="1" edge="1">
          <mxGeometry width="50" height="50" relative="1" as="geometry">
            <mxPoint x="517" y="800" as="sourcePoint" />
            <mxPoint x="997" y="800" as="targetPoint" />
          </mxGeometry>
        </mxCell>
        <mxCell id="3MWkX6Xy3s1bccYpcgpY-94" value="" style="endArrow=classic;startArrow=classic;html=1;rounded=0;" parent="1" edge="1">
          <mxGeometry width="50" height="50" relative="1" as="geometry">
            <mxPoint x="477" y="760" as="sourcePoint" />
            <mxPoint x="517" y="800" as="targetPoint" />
          </mxGeometry>
        </mxCell>
        <mxCell id="3MWkX6Xy3s1bccYpcgpY-95" value="" style="endArrow=classic;startArrow=classic;html=1;rounded=0;" parent="1" edge="1">
          <mxGeometry width="50" height="50" relative="1" as="geometry">
            <mxPoint x="517" y="800" as="sourcePoint" />
            <mxPoint x="557" y="840" as="targetPoint" />
          </mxGeometry>
        </mxCell>
        <mxCell id="3MWkX6Xy3s1bccYpcgpY-96" value="" style="endArrow=classic;startArrow=classic;html=1;rounded=0;" parent="1" edge="1">
          <mxGeometry width="50" height="50" relative="1" as="geometry">
            <mxPoint x="557" y="840" as="sourcePoint" />
            <mxPoint x="1077" y="840" as="targetPoint" />
          </mxGeometry>
        </mxCell>
        <mxCell id="3MWkX6Xy3s1bccYpcgpY-97" value="" style="endArrow=classic;startArrow=classic;html=1;rounded=0;" parent="1" edge="1">
          <mxGeometry width="50" height="50" relative="1" as="geometry">
            <mxPoint x="1077" y="840" as="sourcePoint" />
            <mxPoint x="1157" y="760" as="targetPoint" />
          </mxGeometry>
        </mxCell>
        <mxCell id="3MWkX6Xy3s1bccYpcgpY-98" value="" style="endArrow=classic;startArrow=classic;html=1;rounded=0;" parent="1" edge="1">
          <mxGeometry width="50" height="50" relative="1" as="geometry">
            <mxPoint x="357" y="720" as="sourcePoint" />
            <mxPoint x="437" y="720" as="targetPoint" />
          </mxGeometry>
        </mxCell>
        <mxCell id="3MWkX6Xy3s1bccYpcgpY-99" value="" style="endArrow=classic;startArrow=classic;html=1;rounded=0;" parent="1" edge="1">
          <mxGeometry width="50" height="50" relative="1" as="geometry">
            <mxPoint x="317" y="680" as="sourcePoint" />
            <mxPoint x="357" y="720" as="targetPoint" />
          </mxGeometry>
        </mxCell>
        <mxCell id="3MWkX6Xy3s1bccYpcgpY-100" value="" style="endArrow=classic;startArrow=classic;html=1;rounded=0;" parent="1" edge="1">
          <mxGeometry width="50" height="50" relative="1" as="geometry">
            <mxPoint x="317" y="680" as="sourcePoint" />
            <mxPoint x="317" y="640" as="targetPoint" />
          </mxGeometry>
        </mxCell>
        <mxCell id="3MWkX6Xy3s1bccYpcgpY-101" value="" style="endArrow=classic;startArrow=classic;html=1;rounded=0;" parent="1" edge="1">
          <mxGeometry width="50" height="50" relative="1" as="geometry">
            <mxPoint x="277" y="600" as="sourcePoint" />
            <mxPoint x="317" y="640" as="targetPoint" />
          </mxGeometry>
        </mxCell>
        <mxCell id="3MWkX6Xy3s1bccYpcgpY-102" value="" style="endArrow=classic;startArrow=classic;html=1;rounded=0;strokeColor=#00ff00;" parent="1" edge="1">
          <mxGeometry width="50" height="50" relative="1" as="geometry">
            <mxPoint x="77" y="600" as="sourcePoint" />
            <mxPoint x="197" y="600" as="targetPoint" />
          </mxGeometry>
        </mxCell>
        <mxCell id="3MWkX6Xy3s1bccYpcgpY-103" value="" style="endArrow=classic;startArrow=classic;html=1;rounded=0;" parent="1" edge="1">
          <mxGeometry width="50" height="50" relative="1" as="geometry">
            <mxPoint x="557" y="920" as="sourcePoint" />
            <mxPoint x="597" y="880" as="targetPoint" />
          </mxGeometry>
        </mxCell>
        <mxCell id="3MWkX6Xy3s1bccYpcgpY-104" value="" style="endArrow=classic;startArrow=classic;html=1;rounded=0;" parent="1" edge="1">
          <mxGeometry width="50" height="50" relative="1" as="geometry">
            <mxPoint x="597" y="880" as="sourcePoint" />
            <mxPoint x="997" y="880" as="targetPoint" />
          </mxGeometry>
        </mxCell>
        <mxCell id="3MWkX6Xy3s1bccYpcgpY-105" value="" style="endArrow=classic;startArrow=classic;html=1;rounded=0;" parent="1" edge="1">
          <mxGeometry width="50" height="50" relative="1" as="geometry">
            <mxPoint x="1037" y="920" as="sourcePoint" />
            <mxPoint x="997" y="880" as="targetPoint" />
          </mxGeometry>
        </mxCell>
        <mxCell id="3MWkX6Xy3s1bccYpcgpY-106" value="" style="endArrow=classic;startArrow=classic;html=1;rounded=0;" parent="1" edge="1">
          <mxGeometry width="50" height="50" relative="1" as="geometry">
            <mxPoint x="557" y="921" as="sourcePoint" />
            <mxPoint x="1037" y="921" as="targetPoint" />
          </mxGeometry>
        </mxCell>
        <mxCell id="3MWkX6Xy3s1bccYpcgpY-107" value="" style="endArrow=classic;startArrow=classic;html=1;rounded=0;" parent="1" edge="1">
          <mxGeometry width="50" height="50" relative="1" as="geometry">
            <mxPoint x="437" y="920" as="sourcePoint" />
            <mxPoint x="557" y="920" as="targetPoint" />
          </mxGeometry>
        </mxCell>
        <mxCell id="3MWkX6Xy3s1bccYpcgpY-108" value="" style="endArrow=classic;startArrow=classic;html=1;rounded=0;" parent="1" edge="1">
          <mxGeometry width="50" height="50" relative="1" as="geometry">
            <mxPoint x="437" y="920" as="sourcePoint" />
            <mxPoint x="477" y="960" as="targetPoint" />
          </mxGeometry>
        </mxCell>
        <mxCell id="3MWkX6Xy3s1bccYpcgpY-109" value="" style="endArrow=classic;startArrow=classic;html=1;rounded=0;" parent="1" edge="1">
          <mxGeometry width="50" height="50" relative="1" as="geometry">
            <mxPoint x="557" y="960" as="sourcePoint" />
            <mxPoint x="1037" y="960" as="targetPoint" />
          </mxGeometry>
        </mxCell>
        <mxCell id="3MWkX6Xy3s1bccYpcgpY-111" value="" style="endArrow=classic;startArrow=classic;html=1;rounded=0;" parent="1" edge="1">
          <mxGeometry width="50" height="50" relative="1" as="geometry">
            <mxPoint x="597" y="1000" as="sourcePoint" />
            <mxPoint x="1037" y="1000" as="targetPoint" />
          </mxGeometry>
        </mxCell>
        <mxCell id="3MWkX6Xy3s1bccYpcgpY-112" value="" style="endArrow=classic;startArrow=classic;html=1;rounded=0;" parent="1" edge="1">
          <mxGeometry width="50" height="50" relative="1" as="geometry">
            <mxPoint x="557" y="960" as="sourcePoint" />
            <mxPoint x="597" y="1000" as="targetPoint" />
          </mxGeometry>
        </mxCell>
        <mxCell id="3MWkX6Xy3s1bccYpcgpY-115" value="" style="endArrow=classic;startArrow=classic;html=1;rounded=0;" parent="1" edge="1">
          <mxGeometry width="50" height="50" relative="1" as="geometry">
            <mxPoint x="1037" y="920" as="sourcePoint" />
            <mxPoint x="1077" y="920" as="targetPoint" />
          </mxGeometry>
        </mxCell>
        <mxCell id="3MWkX6Xy3s1bccYpcgpY-116" value="" style="endArrow=classic;startArrow=classic;html=1;rounded=0;" parent="1" edge="1">
          <mxGeometry width="50" height="50" relative="1" as="geometry">
            <mxPoint x="1077" y="920" as="sourcePoint" />
            <mxPoint x="1117" y="960" as="targetPoint" />
          </mxGeometry>
        </mxCell>
        <mxCell id="3MWkX6Xy3s1bccYpcgpY-121" value="" style="endArrow=classic;startArrow=classic;html=1;rounded=0;" parent="1" edge="1">
          <mxGeometry width="50" height="50" relative="1" as="geometry">
            <mxPoint x="477" y="960" as="sourcePoint" />
            <mxPoint x="557" y="960" as="targetPoint" />
          </mxGeometry>
        </mxCell>
        <mxCell id="3MWkX6Xy3s1bccYpcgpY-122" value="" style="endArrow=classic;startArrow=classic;html=1;rounded=0;" parent="1" edge="1">
          <mxGeometry width="50" height="50" relative="1" as="geometry">
            <mxPoint x="1037" y="960" as="sourcePoint" />
            <mxPoint x="1117" y="960" as="targetPoint" />
          </mxGeometry>
        </mxCell>
        <mxCell id="3MWkX6Xy3s1bccYpcgpY-123" value="" style="endArrow=classic;startArrow=classic;html=1;rounded=0;" parent="1" edge="1">
          <mxGeometry width="50" height="50" relative="1" as="geometry">
            <mxPoint x="997" y="1040" as="sourcePoint" />
            <mxPoint x="1037" y="1000" as="targetPoint" />
          </mxGeometry>
        </mxCell>
        <mxCell id="3MWkX6Xy3s1bccYpcgpY-124" value="" style="endArrow=classic;startArrow=classic;html=1;rounded=0;" parent="1" edge="1">
          <mxGeometry width="50" height="50" relative="1" as="geometry">
            <mxPoint x="1117" y="960" as="sourcePoint" />
            <mxPoint x="1157" y="1000" as="targetPoint" />
          </mxGeometry>
        </mxCell>
        <mxCell id="3MWkX6Xy3s1bccYpcgpY-125" value="" style="endArrow=classic;startArrow=classic;html=1;rounded=0;" parent="1" edge="1">
          <mxGeometry width="50" height="50" relative="1" as="geometry">
            <mxPoint x="1037" y="1000" as="sourcePoint" />
            <mxPoint x="1157" y="1000" as="targetPoint" />
          </mxGeometry>
        </mxCell>
        <mxCell id="3MWkX6Xy3s1bccYpcgpY-126" value="" style="endArrow=classic;startArrow=classic;html=1;rounded=0;" parent="1" edge="1">
          <mxGeometry width="50" height="50" relative="1" as="geometry">
            <mxPoint x="557" y="1040" as="sourcePoint" />
            <mxPoint x="997" y="1040" as="targetPoint" />
          </mxGeometry>
        </mxCell>
        <mxCell id="3MWkX6Xy3s1bccYpcgpY-127" value="" style="endArrow=classic;startArrow=classic;html=1;rounded=0;" parent="1" edge="1">
          <mxGeometry width="50" height="50" relative="1" as="geometry">
            <mxPoint x="197" y="600" as="sourcePoint" />
            <mxPoint x="277" y="600" as="targetPoint" />
          </mxGeometry>
        </mxCell>
        <mxCell id="3MWkX6Xy3s1bccYpcgpY-128" value="" style="endArrow=classic;startArrow=classic;html=1;rounded=0;" parent="1" edge="1">
          <mxGeometry width="50" height="50" relative="1" as="geometry">
            <mxPoint x="197" y="600" as="sourcePoint" />
            <mxPoint x="237" y="640" as="targetPoint" />
          </mxGeometry>
        </mxCell>
        <mxCell id="3MWkX6Xy3s1bccYpcgpY-129" value="" style="endArrow=classic;startArrow=classic;html=1;rounded=0;" parent="1" edge="1">
          <mxGeometry width="50" height="50" relative="1" as="geometry">
            <mxPoint x="237" y="760" as="sourcePoint" />
            <mxPoint x="237" y="640" as="targetPoint" />
          </mxGeometry>
        </mxCell>
        <mxCell id="3MWkX6Xy3s1bccYpcgpY-130" value="" style="endArrow=classic;startArrow=classic;html=1;rounded=0;" parent="1" edge="1">
          <mxGeometry width="50" height="50" relative="1" as="geometry">
            <mxPoint x="317" y="840" as="sourcePoint" />
            <mxPoint x="237" y="760" as="targetPoint" />
          </mxGeometry>
        </mxCell>
        <mxCell id="3MWkX6Xy3s1bccYpcgpY-131" value="" style="endArrow=classic;startArrow=classic;html=1;rounded=0;" parent="1" edge="1">
          <mxGeometry width="50" height="50" relative="1" as="geometry">
            <mxPoint x="437" y="920" as="sourcePoint" />
            <mxPoint x="357" y="840" as="targetPoint" />
          </mxGeometry>
        </mxCell>
        <mxCell id="3MWkX6Xy3s1bccYpcgpY-132" value="" style="endArrow=classic;startArrow=classic;html=1;rounded=0;" parent="1" edge="1">
          <mxGeometry width="50" height="50" relative="1" as="geometry">
            <mxPoint x="317" y="840" as="sourcePoint" />
            <mxPoint x="357" y="840" as="targetPoint" />
          </mxGeometry>
        </mxCell>
        <mxCell id="3MWkX6Xy3s1bccYpcgpY-133" value="" style="endArrow=classic;startArrow=classic;html=1;rounded=0;" parent="1" edge="1">
          <mxGeometry width="50" height="50" relative="1" as="geometry">
            <mxPoint x="437" y="1080" as="sourcePoint" />
            <mxPoint x="1037" y="1080" as="targetPoint" />
          </mxGeometry>
        </mxCell>
        <mxCell id="3MWkX6Xy3s1bccYpcgpY-134" value="" style="endArrow=classic;startArrow=classic;html=1;rounded=0;" parent="1" edge="1">
          <mxGeometry width="50" height="50" relative="1" as="geometry">
            <mxPoint x="997" y="1120" as="sourcePoint" />
            <mxPoint x="1037" y="1080" as="targetPoint" />
          </mxGeometry>
        </mxCell>
        <mxCell id="3MWkX6Xy3s1bccYpcgpY-135" value="" style="endArrow=classic;startArrow=classic;html=1;rounded=0;" parent="1" edge="1">
          <mxGeometry width="50" height="50" relative="1" as="geometry">
            <mxPoint x="437" y="1120" as="sourcePoint" />
            <mxPoint x="997" y="1120" as="targetPoint" />
          </mxGeometry>
        </mxCell>
        <mxCell id="3MWkX6Xy3s1bccYpcgpY-136" value="" style="endArrow=classic;startArrow=classic;html=1;rounded=0;" parent="1" edge="1">
          <mxGeometry width="50" height="50" relative="1" as="geometry">
            <mxPoint x="1037" y="1080" as="sourcePoint" />
            <mxPoint x="1117" y="1080" as="targetPoint" />
          </mxGeometry>
        </mxCell>
        <mxCell id="3MWkX6Xy3s1bccYpcgpY-137" value="" style="endArrow=classic;startArrow=classic;html=1;rounded=0;" parent="1" edge="1">
          <mxGeometry width="50" height="50" relative="1" as="geometry">
            <mxPoint x="1037" y="1160" as="sourcePoint" />
            <mxPoint x="1117" y="1080" as="targetPoint" />
          </mxGeometry>
        </mxCell>
        <mxCell id="3MWkX6Xy3s1bccYpcgpY-138" value="" style="endArrow=classic;startArrow=classic;html=1;rounded=0;" parent="1" edge="1">
          <mxGeometry width="50" height="50" relative="1" as="geometry">
            <mxPoint x="437" y="1160" as="sourcePoint" />
            <mxPoint x="1037" y="1160" as="targetPoint" />
          </mxGeometry>
        </mxCell>
        <mxCell id="3MWkX6Xy3s1bccYpcgpY-139" value="" style="endArrow=classic;startArrow=classic;html=1;rounded=0;" parent="1" edge="1">
          <mxGeometry width="50" height="50" relative="1" as="geometry">
            <mxPoint x="1157" y="1000" as="sourcePoint" />
            <mxPoint x="1237" y="1000" as="targetPoint" />
          </mxGeometry>
        </mxCell>
        <mxCell id="3MWkX6Xy3s1bccYpcgpY-140" value="" style="endArrow=classic;startArrow=classic;html=1;rounded=0;" parent="1" edge="1">
          <mxGeometry width="50" height="50" relative="1" as="geometry">
            <mxPoint x="1157" y="1080" as="sourcePoint" />
            <mxPoint x="1237" y="1000" as="targetPoint" />
          </mxGeometry>
        </mxCell>
        <mxCell id="3MWkX6Xy3s1bccYpcgpY-141" value="" style="endArrow=classic;startArrow=classic;html=1;rounded=0;" parent="1" edge="1">
          <mxGeometry width="50" height="50" relative="1" as="geometry">
            <mxPoint x="1237" y="1000" as="sourcePoint" />
            <mxPoint x="1317" y="1000" as="targetPoint" />
          </mxGeometry>
        </mxCell>
        <mxCell id="3MWkX6Xy3s1bccYpcgpY-142" value="" style="endArrow=classic;startArrow=classic;html=1;rounded=0;" parent="1" edge="1">
          <mxGeometry width="50" height="50" relative="1" as="geometry">
            <mxPoint x="1317" y="1000" as="sourcePoint" />
            <mxPoint x="1357" y="960" as="targetPoint" />
          </mxGeometry>
        </mxCell>
        <mxCell id="3MWkX6Xy3s1bccYpcgpY-143" value="" style="endArrow=classic;startArrow=classic;html=1;rounded=0;" parent="1" edge="1">
          <mxGeometry width="50" height="50" relative="1" as="geometry">
            <mxPoint x="1357" y="960" as="sourcePoint" />
            <mxPoint x="1357" y="840" as="targetPoint" />
          </mxGeometry>
        </mxCell>
        <mxCell id="3MWkX6Xy3s1bccYpcgpY-144" value="" style="endArrow=classic;startArrow=classic;html=1;rounded=0;" parent="1" edge="1">
          <mxGeometry width="50" height="50" relative="1" as="geometry">
            <mxPoint x="1157" y="720" as="sourcePoint" />
            <mxPoint x="1197" y="720" as="targetPoint" />
          </mxGeometry>
        </mxCell>
        <mxCell id="3MWkX6Xy3s1bccYpcgpY-145" value="" style="endArrow=classic;startArrow=classic;html=1;rounded=0;" parent="1" edge="1">
          <mxGeometry width="50" height="50" relative="1" as="geometry">
            <mxPoint x="1797" y="440" as="sourcePoint" />
            <mxPoint x="1877" y="440" as="targetPoint" />
          </mxGeometry>
        </mxCell>
        <mxCell id="3MWkX6Xy3s1bccYpcgpY-146" value="" style="endArrow=classic;startArrow=classic;html=1;rounded=0;" parent="1" edge="1">
          <mxGeometry width="50" height="50" relative="1" as="geometry">
            <mxPoint x="1757" y="400" as="sourcePoint" />
            <mxPoint x="1837" y="400" as="targetPoint" />
          </mxGeometry>
        </mxCell>
        <mxCell id="3MWkX6Xy3s1bccYpcgpY-147" value="" style="endArrow=classic;startArrow=classic;html=1;rounded=0;" parent="1" edge="1">
          <mxGeometry width="50" height="50" relative="1" as="geometry">
            <mxPoint x="1677" y="480" as="sourcePoint" />
            <mxPoint x="1717" y="440" as="targetPoint" />
          </mxGeometry>
        </mxCell>
        <mxCell id="3MWkX6Xy3s1bccYpcgpY-148" value="" style="endArrow=classic;startArrow=classic;html=1;rounded=0;" parent="1" edge="1">
          <mxGeometry width="50" height="50" relative="1" as="geometry">
            <mxPoint x="1677" y="560" as="sourcePoint" />
            <mxPoint x="1677" y="480" as="targetPoint" />
          </mxGeometry>
        </mxCell>
        <mxCell id="3MWkX6Xy3s1bccYpcgpY-149" value="" style="endArrow=classic;startArrow=classic;html=1;rounded=0;" parent="1" edge="1">
          <mxGeometry width="50" height="50" relative="1" as="geometry">
            <mxPoint x="1597" y="640" as="sourcePoint" />
            <mxPoint x="1677" y="560" as="targetPoint" />
          </mxGeometry>
        </mxCell>
        <mxCell id="3MWkX6Xy3s1bccYpcgpY-150" value="" style="endArrow=classic;startArrow=classic;html=1;rounded=0;" parent="1" edge="1">
          <mxGeometry width="50" height="50" relative="1" as="geometry">
            <mxPoint x="1517" y="640" as="sourcePoint" />
            <mxPoint x="1597" y="640" as="targetPoint" />
          </mxGeometry>
        </mxCell>
        <mxCell id="3MWkX6Xy3s1bccYpcgpY-151" value="" style="endArrow=classic;startArrow=classic;html=1;rounded=0;" parent="1" edge="1">
          <mxGeometry width="50" height="50" relative="1" as="geometry">
            <mxPoint x="1437" y="720" as="sourcePoint" />
            <mxPoint x="1517" y="640" as="targetPoint" />
          </mxGeometry>
        </mxCell>
        <mxCell id="3MWkX6Xy3s1bccYpcgpY-152" value="" style="endArrow=classic;startArrow=classic;html=1;rounded=0;" parent="1" edge="1">
          <mxGeometry width="50" height="50" relative="1" as="geometry">
            <mxPoint x="1437" y="760" as="sourcePoint" />
            <mxPoint x="1437" y="720" as="targetPoint" />
          </mxGeometry>
        </mxCell>
        <mxCell id="3MWkX6Xy3s1bccYpcgpY-153" value="" style="endArrow=classic;startArrow=classic;html=1;rounded=0;" parent="1" edge="1">
          <mxGeometry width="50" height="50" relative="1" as="geometry">
            <mxPoint x="1357" y="840" as="sourcePoint" />
            <mxPoint x="1437" y="760" as="targetPoint" />
          </mxGeometry>
        </mxCell>
        <mxCell id="3MWkX6Xy3s1bccYpcgpY-154" value="" style="endArrow=classic;startArrow=classic;html=1;rounded=0;" parent="1" edge="1">
          <mxGeometry width="50" height="50" relative="1" as="geometry">
            <mxPoint x="437" y="1240" as="sourcePoint" />
            <mxPoint x="1037" y="1240" as="targetPoint" />
          </mxGeometry>
        </mxCell>
        <mxCell id="3MWkX6Xy3s1bccYpcgpY-155" value="" style="endArrow=classic;startArrow=classic;html=1;rounded=0;strokeColor=#00ff00;" parent="1" edge="1">
          <mxGeometry width="50" height="50" relative="1" as="geometry">
            <mxPoint x="77" y="640" as="sourcePoint" />
            <mxPoint x="117" y="640" as="targetPoint" />
          </mxGeometry>
        </mxCell>
        <mxCell id="3MWkX6Xy3s1bccYpcgpY-156" value="" style="endArrow=classic;startArrow=classic;html=1;rounded=0;" parent="1" edge="1">
          <mxGeometry width="50" height="50" relative="1" as="geometry">
            <mxPoint x="117" y="640" as="sourcePoint" />
            <mxPoint x="157" y="680" as="targetPoint" />
          </mxGeometry>
        </mxCell>
        <mxCell id="3MWkX6Xy3s1bccYpcgpY-157" value="" style="endArrow=classic;startArrow=classic;html=1;rounded=0;" parent="1" edge="1">
          <mxGeometry width="50" height="50" relative="1" as="geometry">
            <mxPoint x="157" y="800" as="sourcePoint" />
            <mxPoint x="157" y="680" as="targetPoint" />
          </mxGeometry>
        </mxCell>
        <mxCell id="3MWkX6Xy3s1bccYpcgpY-158" value="" style="endArrow=classic;startArrow=classic;html=1;rounded=0;" parent="1" edge="1">
          <mxGeometry width="50" height="50" relative="1" as="geometry">
            <mxPoint x="157" y="800" as="sourcePoint" />
            <mxPoint x="197" y="840" as="targetPoint" />
          </mxGeometry>
        </mxCell>
        <mxCell id="3MWkX6Xy3s1bccYpcgpY-159" value="" style="endArrow=classic;startArrow=classic;html=1;rounded=0;" parent="1" edge="1">
          <mxGeometry width="50" height="50" relative="1" as="geometry">
            <mxPoint x="197" y="960" as="sourcePoint" />
            <mxPoint x="197" y="840" as="targetPoint" />
          </mxGeometry>
        </mxCell>
        <mxCell id="3MWkX6Xy3s1bccYpcgpY-160" value="" style="endArrow=classic;startArrow=classic;html=1;rounded=0;" parent="1" edge="1">
          <mxGeometry width="50" height="50" relative="1" as="geometry">
            <mxPoint x="197" y="960" as="sourcePoint" />
            <mxPoint x="237" y="1000" as="targetPoint" />
          </mxGeometry>
        </mxCell>
        <mxCell id="3MWkX6Xy3s1bccYpcgpY-161" value="" style="endArrow=classic;startArrow=classic;html=1;rounded=0;" parent="1" edge="1">
          <mxGeometry width="50" height="50" relative="1" as="geometry">
            <mxPoint x="237" y="1120" as="sourcePoint" />
            <mxPoint x="237" y="1000" as="targetPoint" />
          </mxGeometry>
        </mxCell>
        <mxCell id="3MWkX6Xy3s1bccYpcgpY-162" value="" style="endArrow=classic;startArrow=classic;html=1;rounded=0;" parent="1" edge="1">
          <mxGeometry width="50" height="50" relative="1" as="geometry">
            <mxPoint x="357" y="1240" as="sourcePoint" />
            <mxPoint x="437" y="1240" as="targetPoint" />
          </mxGeometry>
        </mxCell>
        <mxCell id="3MWkX6Xy3s1bccYpcgpY-163" value="" style="endArrow=classic;startArrow=classic;html=1;rounded=0;" parent="1" edge="1">
          <mxGeometry width="50" height="50" relative="1" as="geometry">
            <mxPoint x="357" y="1240" as="sourcePoint" />
            <mxPoint x="237" y="1120" as="targetPoint" />
          </mxGeometry>
        </mxCell>
        <mxCell id="3MWkX6Xy3s1bccYpcgpY-164" value="" style="endArrow=classic;startArrow=classic;html=1;rounded=0;" parent="1" edge="1">
          <mxGeometry width="50" height="50" relative="1" as="geometry">
            <mxPoint x="437" y="1240" as="sourcePoint" />
            <mxPoint x="477" y="1280" as="targetPoint" />
          </mxGeometry>
        </mxCell>
        <mxCell id="3MWkX6Xy3s1bccYpcgpY-165" value="" style="endArrow=classic;startArrow=classic;html=1;rounded=0;" parent="1" edge="1">
          <mxGeometry width="50" height="50" relative="1" as="geometry">
            <mxPoint x="477" y="1280" as="sourcePoint" />
            <mxPoint x="997" y="1280" as="targetPoint" />
          </mxGeometry>
        </mxCell>
        <mxCell id="3MWkX6Xy3s1bccYpcgpY-166" value="" style="endArrow=classic;startArrow=classic;html=1;rounded=0;" parent="1" edge="1">
          <mxGeometry width="50" height="50" relative="1" as="geometry">
            <mxPoint x="1037" y="1240" as="sourcePoint" />
            <mxPoint x="1077" y="1280" as="targetPoint" />
          </mxGeometry>
        </mxCell>
        <mxCell id="3MWkX6Xy3s1bccYpcgpY-167" value="" style="endArrow=classic;startArrow=classic;html=1;rounded=0;" parent="1" edge="1">
          <mxGeometry width="50" height="50" relative="1" as="geometry">
            <mxPoint x="1037" y="1240" as="sourcePoint" />
            <mxPoint x="1237" y="1240" as="targetPoint" />
          </mxGeometry>
        </mxCell>
        <mxCell id="3MWkX6Xy3s1bccYpcgpY-168" value="" style="endArrow=classic;startArrow=classic;html=1;rounded=0;" parent="1" edge="1">
          <mxGeometry width="50" height="50" relative="1" as="geometry">
            <mxPoint x="1237" y="1240" as="sourcePoint" />
            <mxPoint x="1357" y="1120" as="targetPoint" />
          </mxGeometry>
        </mxCell>
        <mxCell id="3MWkX6Xy3s1bccYpcgpY-169" value="" style="endArrow=classic;startArrow=classic;html=1;rounded=0;" parent="1" edge="1">
          <mxGeometry width="50" height="50" relative="1" as="geometry">
            <mxPoint x="1357" y="1120" as="sourcePoint" />
            <mxPoint x="1357" y="1040" as="targetPoint" />
          </mxGeometry>
        </mxCell>
        <mxCell id="3MWkX6Xy3s1bccYpcgpY-170" value="" style="endArrow=classic;startArrow=classic;html=1;rounded=0;" parent="1" edge="1">
          <mxGeometry width="50" height="50" relative="1" as="geometry">
            <mxPoint x="1357" y="1040" as="sourcePoint" />
            <mxPoint x="1437" y="960" as="targetPoint" />
          </mxGeometry>
        </mxCell>
        <mxCell id="3MWkX6Xy3s1bccYpcgpY-171" value="" style="endArrow=classic;startArrow=classic;html=1;rounded=0;" parent="1" edge="1">
          <mxGeometry width="50" height="50" relative="1" as="geometry">
            <mxPoint x="1437" y="960" as="sourcePoint" />
            <mxPoint x="1437" y="760" as="targetPoint" />
          </mxGeometry>
        </mxCell>
        <mxCell id="3MWkX6Xy3s1bccYpcgpY-172" value="" style="endArrow=classic;startArrow=classic;html=1;rounded=0;" parent="1" edge="1">
          <mxGeometry width="50" height="50" relative="1" as="geometry">
            <mxPoint x="1437" y="960" as="sourcePoint" />
            <mxPoint x="1517" y="960" as="targetPoint" />
          </mxGeometry>
        </mxCell>
        <mxCell id="3MWkX6Xy3s1bccYpcgpY-174" value="" style="endArrow=classic;startArrow=classic;html=1;rounded=0;" parent="1" edge="1">
          <mxGeometry width="50" height="50" relative="1" as="geometry">
            <mxPoint x="997" y="1280" as="sourcePoint" />
            <mxPoint x="1037" y="1320" as="targetPoint" />
          </mxGeometry>
        </mxCell>
        <mxCell id="3MWkX6Xy3s1bccYpcgpY-175" value="" style="endArrow=classic;startArrow=classic;html=1;rounded=0;" parent="1" edge="1">
          <mxGeometry width="50" height="50" relative="1" as="geometry">
            <mxPoint x="997" y="1280" as="sourcePoint" />
            <mxPoint x="1077" y="1280" as="targetPoint" />
          </mxGeometry>
        </mxCell>
        <mxCell id="3MWkX6Xy3s1bccYpcgpY-176" value="" style="endArrow=classic;startArrow=classic;html=1;rounded=0;" parent="1" edge="1">
          <mxGeometry width="50" height="50" relative="1" as="geometry">
            <mxPoint x="1197" y="1280" as="sourcePoint" />
            <mxPoint x="1237" y="1240" as="targetPoint" />
          </mxGeometry>
        </mxCell>
        <mxCell id="3MWkX6Xy3s1bccYpcgpY-177" value="" style="endArrow=classic;startArrow=classic;html=1;rounded=0;" parent="1" edge="1">
          <mxGeometry width="50" height="50" relative="1" as="geometry">
            <mxPoint x="1077" y="1280" as="sourcePoint" />
            <mxPoint x="1197" y="1280" as="targetPoint" />
          </mxGeometry>
        </mxCell>
        <mxCell id="3MWkX6Xy3s1bccYpcgpY-178" value="" style="endArrow=classic;startArrow=classic;html=1;rounded=0;" parent="1" edge="1">
          <mxGeometry width="50" height="50" relative="1" as="geometry">
            <mxPoint x="1237" y="1240" as="sourcePoint" />
            <mxPoint x="1517" y="1240" as="targetPoint" />
          </mxGeometry>
        </mxCell>
        <mxCell id="3MWkX6Xy3s1bccYpcgpY-179" value="" style="endArrow=classic;startArrow=classic;html=1;rounded=0;" parent="1" edge="1">
          <mxGeometry width="50" height="50" relative="1" as="geometry">
            <mxPoint x="1197" y="1280" as="sourcePoint" />
            <mxPoint x="1517" y="1280" as="targetPoint" />
          </mxGeometry>
        </mxCell>
        <mxCell id="3MWkX6Xy3s1bccYpcgpY-180" value="" style="endArrow=classic;startArrow=classic;html=1;rounded=0;" parent="1" edge="1">
          <mxGeometry width="50" height="50" relative="1" as="geometry">
            <mxPoint x="1157" y="1320" as="sourcePoint" />
            <mxPoint x="1197" y="1280" as="targetPoint" />
          </mxGeometry>
        </mxCell>
        <mxCell id="3MWkX6Xy3s1bccYpcgpY-181" value="" style="endArrow=classic;startArrow=classic;html=1;rounded=0;" parent="1" edge="1">
          <mxGeometry width="50" height="50" relative="1" as="geometry">
            <mxPoint x="1037" y="1320" as="sourcePoint" />
            <mxPoint x="1157" y="1320" as="targetPoint" />
          </mxGeometry>
        </mxCell>
        <mxCell id="3MWkX6Xy3s1bccYpcgpY-182" value="" style="endArrow=classic;startArrow=classic;html=1;rounded=0;" parent="1" edge="1">
          <mxGeometry width="50" height="50" relative="1" as="geometry">
            <mxPoint x="1037" y="1320" as="sourcePoint" />
            <mxPoint x="1077" y="1360" as="targetPoint" />
          </mxGeometry>
        </mxCell>
        <mxCell id="3MWkX6Xy3s1bccYpcgpY-183" value="" style="endArrow=classic;startArrow=classic;html=1;rounded=0;" parent="1" edge="1">
          <mxGeometry width="50" height="50" relative="1" as="geometry">
            <mxPoint x="1077" y="1360" as="sourcePoint" />
            <mxPoint x="1517" y="1360" as="targetPoint" />
          </mxGeometry>
        </mxCell>
        <mxCell id="3MWkX6Xy3s1bccYpcgpY-184" value="" style="endArrow=classic;startArrow=classic;html=1;rounded=0;" parent="1" edge="1">
          <mxGeometry width="50" height="50" relative="1" as="geometry">
            <mxPoint x="437" y="1320" as="sourcePoint" />
            <mxPoint x="1037" y="1320" as="targetPoint" />
          </mxGeometry>
        </mxCell>
        <mxCell id="3MWkX6Xy3s1bccYpcgpY-185" value="" style="endArrow=classic;startArrow=classic;html=1;rounded=0;" parent="1" edge="1">
          <mxGeometry width="50" height="50" relative="1" as="geometry">
            <mxPoint x="477" y="1360" as="sourcePoint" />
            <mxPoint x="1077" y="1360" as="targetPoint" />
          </mxGeometry>
        </mxCell>
        <mxCell id="3MWkX6Xy3s1bccYpcgpY-186" value="" style="endArrow=classic;startArrow=classic;html=1;rounded=0;" parent="1" edge="1">
          <mxGeometry width="50" height="50" relative="1" as="geometry">
            <mxPoint x="437" y="1320" as="sourcePoint" />
            <mxPoint x="477" y="1360" as="targetPoint" />
          </mxGeometry>
        </mxCell>
        <mxCell id="3MWkX6Xy3s1bccYpcgpY-187" value="" style="endArrow=classic;startArrow=classic;html=1;rounded=0;" parent="1" edge="1">
          <mxGeometry width="50" height="50" relative="1" as="geometry">
            <mxPoint x="357" y="1320" as="sourcePoint" />
            <mxPoint x="437" y="1320" as="targetPoint" />
          </mxGeometry>
        </mxCell>
        <mxCell id="3MWkX6Xy3s1bccYpcgpY-188" value="" style="endArrow=classic;startArrow=classic;html=1;rounded=0;" parent="1" edge="1">
          <mxGeometry width="50" height="50" relative="1" as="geometry">
            <mxPoint x="357" y="1320" as="sourcePoint" />
            <mxPoint x="157" y="1120" as="targetPoint" />
          </mxGeometry>
        </mxCell>
        <mxCell id="3MWkX6Xy3s1bccYpcgpY-189" value="" style="endArrow=classic;startArrow=classic;html=1;rounded=0;" parent="1" edge="1">
          <mxGeometry width="50" height="50" relative="1" as="geometry">
            <mxPoint x="157" y="1120" as="sourcePoint" />
            <mxPoint x="157" y="960" as="targetPoint" />
          </mxGeometry>
        </mxCell>
        <mxCell id="3MWkX6Xy3s1bccYpcgpY-190" value="" style="endArrow=classic;startArrow=classic;html=1;rounded=0;" parent="1" edge="1">
          <mxGeometry width="50" height="50" relative="1" as="geometry">
            <mxPoint x="117" y="920" as="sourcePoint" />
            <mxPoint x="157" y="960" as="targetPoint" />
          </mxGeometry>
        </mxCell>
        <mxCell id="3MWkX6Xy3s1bccYpcgpY-191" value="" style="endArrow=classic;startArrow=classic;html=1;rounded=0;" parent="1" edge="1">
          <mxGeometry width="50" height="50" relative="1" as="geometry">
            <mxPoint x="77" y="920" as="sourcePoint" />
            <mxPoint x="117" y="920" as="targetPoint" />
          </mxGeometry>
        </mxCell>
        <mxCell id="gZCIxo2phJJ8l8sbqxK4-1" value="TopLeft" style="ellipse;whiteSpace=wrap;html=1;aspect=fixed;strokeColor=#ff0000;" parent="1" vertex="1">
          <mxGeometry x="37" y="40" width="80" height="80" as="geometry" />
        </mxCell>
        <mxCell id="gZCIxo2phJJ8l8sbqxK4-2" value="BottomLeft" style="ellipse;whiteSpace=wrap;html=1;aspect=fixed;" parent="1" vertex="1">
          <mxGeometry x="37" y="1320" width="80" height="80" as="geometry" />
        </mxCell>
        <mxCell id="gZCIxo2phJJ8l8sbqxK4-3" value="TopRight" style="ellipse;whiteSpace=wrap;html=1;aspect=fixed;" parent="1" vertex="1">
          <mxGeometry x="1837" y="40" width="80" height="80" as="geometry" />
        </mxCell>
        <mxCell id="gZCIxo2phJJ8l8sbqxK4-4" value="BottoRight" style="ellipse;whiteSpace=wrap;html=1;aspect=fixed;" parent="1" vertex="1">
          <mxGeometry x="1837" y="1320" width="80" height="80" as="geometry" />
        </mxCell>
      </root>
    </mxGraphModel>
  </diagram>
</mxfile>
